<mxfile host="app.diagrams.net" agent="Mozilla/5.0 (Macintosh; Intel Mac OS X 10_15_7) AppleWebKit/537.36 (KHTML, like Gecko) Chrome/137.0.0.0 Safari/537.36 Edg/137.0.0.0" version="27.1.6">
  <diagram name="第 1 页" id="GW19atiVZEYxLUoV0Edh">
    <mxGraphModel dx="915" dy="626" grid="1" gridSize="10" guides="1" tooltips="1" connect="1" arrows="1" fold="1" page="1" pageScale="1" pageWidth="827" pageHeight="1169" math="0" shadow="0">
      <root>
        <mxCell id="0" />
        <mxCell id="1" parent="0" />
        <mxCell id="-nzasVQWbXumExMnOojZ-2" value="用户-模块信息" style="rounded=1;whiteSpace=wrap;html=1;" vertex="1" parent="1">
          <mxGeometry x="190" y="340" width="100" height="40" as="geometry" />
        </mxCell>
        <mxCell id="-nzasVQWbXumExMnOojZ-16" style="edgeStyle=orthogonalEdgeStyle;rounded=0;orthogonalLoop=1;jettySize=auto;html=1;" edge="1" parent="1" source="-nzasVQWbXumExMnOojZ-3" target="-nzasVQWbXumExMnOojZ-7">
          <mxGeometry relative="1" as="geometry" />
        </mxCell>
        <mxCell id="-nzasVQWbXumExMnOojZ-25" style="edgeStyle=orthogonalEdgeStyle;rounded=0;orthogonalLoop=1;jettySize=auto;html=1;" edge="1" parent="1" source="-nzasVQWbXumExMnOojZ-3" target="-nzasVQWbXumExMnOojZ-24">
          <mxGeometry relative="1" as="geometry" />
        </mxCell>
        <mxCell id="-nzasVQWbXumExMnOojZ-3" value="练习记录" style="rounded=1;whiteSpace=wrap;html=1;dashed=1;" vertex="1" parent="1">
          <mxGeometry x="190" y="200" width="100" height="40" as="geometry" />
        </mxCell>
        <mxCell id="-nzasVQWbXumExMnOojZ-15" style="edgeStyle=orthogonalEdgeStyle;rounded=0;orthogonalLoop=1;jettySize=auto;html=1;entryX=0.5;entryY=0;entryDx=0;entryDy=0;" edge="1" parent="1" source="-nzasVQWbXumExMnOojZ-4" target="-nzasVQWbXumExMnOojZ-3">
          <mxGeometry relative="1" as="geometry" />
        </mxCell>
        <mxCell id="-nzasVQWbXumExMnOojZ-4" value="答题记录" style="rounded=1;whiteSpace=wrap;html=1;" vertex="1" parent="1">
          <mxGeometry x="190" y="130" width="100" height="40" as="geometry" />
        </mxCell>
        <mxCell id="-nzasVQWbXumExMnOojZ-17" style="edgeStyle=orthogonalEdgeStyle;rounded=0;orthogonalLoop=1;jettySize=auto;html=1;" edge="1" parent="1" source="-nzasVQWbXumExMnOojZ-7" target="-nzasVQWbXumExMnOojZ-10">
          <mxGeometry relative="1" as="geometry" />
        </mxCell>
        <mxCell id="-nzasVQWbXumExMnOojZ-18" style="edgeStyle=orthogonalEdgeStyle;rounded=0;orthogonalLoop=1;jettySize=auto;html=1;" edge="1" parent="1" source="-nzasVQWbXumExMnOojZ-7" target="-nzasVQWbXumExMnOojZ-2">
          <mxGeometry relative="1" as="geometry" />
        </mxCell>
        <mxCell id="-nzasVQWbXumExMnOojZ-7" value="用户当前底层记录" style="rounded=1;whiteSpace=wrap;html=1;" vertex="1" parent="1">
          <mxGeometry x="190" y="270" width="100" height="40" as="geometry" />
        </mxCell>
        <mxCell id="-nzasVQWbXumExMnOojZ-10" value="用户当前上层记录" style="rounded=1;whiteSpace=wrap;html=1;" vertex="1" parent="1">
          <mxGeometry x="340" y="270" width="100" height="40" as="geometry" />
        </mxCell>
        <mxCell id="-nzasVQWbXumExMnOojZ-13" style="edgeStyle=orthogonalEdgeStyle;rounded=0;orthogonalLoop=1;jettySize=auto;html=1;entryX=0;entryY=0.5;entryDx=0;entryDy=0;" edge="1" parent="1" source="-nzasVQWbXumExMnOojZ-12" target="-nzasVQWbXumExMnOojZ-4">
          <mxGeometry relative="1" as="geometry" />
        </mxCell>
        <mxCell id="-nzasVQWbXumExMnOojZ-14" value="提交学习" style="edgeLabel;html=1;align=center;verticalAlign=middle;resizable=0;points=[];" vertex="1" connectable="0" parent="-nzasVQWbXumExMnOojZ-13">
          <mxGeometry x="-0.2429" y="1" relative="1" as="geometry">
            <mxPoint as="offset" />
          </mxGeometry>
        </mxCell>
        <mxCell id="-nzasVQWbXumExMnOojZ-12" value="Actor" style="shape=umlActor;verticalLabelPosition=bottom;verticalAlign=top;html=1;outlineConnect=0;" vertex="1" parent="1">
          <mxGeometry x="40" y="120" width="30" height="60" as="geometry" />
        </mxCell>
        <mxCell id="-nzasVQWbXumExMnOojZ-19" value="错题本" style="rounded=1;whiteSpace=wrap;html=1;" vertex="1" parent="1">
          <mxGeometry x="570" y="160" width="100" height="40" as="geometry" />
        </mxCell>
        <mxCell id="-nzasVQWbXumExMnOojZ-21" value="学情分析" style="rounded=1;whiteSpace=wrap;html=1;" vertex="1" parent="1">
          <mxGeometry x="570" y="220" width="100" height="40" as="geometry" />
        </mxCell>
        <mxCell id="-nzasVQWbXumExMnOojZ-26" style="edgeStyle=orthogonalEdgeStyle;rounded=0;orthogonalLoop=1;jettySize=auto;html=1;dashed=1;" edge="1" parent="1" source="-nzasVQWbXumExMnOojZ-24" target="-nzasVQWbXumExMnOojZ-19">
          <mxGeometry relative="1" as="geometry" />
        </mxCell>
        <mxCell id="-nzasVQWbXumExMnOojZ-27" style="edgeStyle=orthogonalEdgeStyle;rounded=0;orthogonalLoop=1;jettySize=auto;html=1;dashed=1;" edge="1" parent="1" source="-nzasVQWbXumExMnOojZ-24" target="-nzasVQWbXumExMnOojZ-21">
          <mxGeometry relative="1" as="geometry" />
        </mxCell>
        <mxCell id="-nzasVQWbXumExMnOojZ-24" value="事件通知" style="rounded=1;whiteSpace=wrap;html=1;dashed=1;" vertex="1" parent="1">
          <mxGeometry x="350" y="200" width="100" height="40" as="geometry" />
        </mxCell>
      </root>
    </mxGraphModel>
  </diagram>
</mxfile>
